<svg width="960" height="554" viewBox="0 0 960 554" fill="none" xmlns="http://www.w3.org/2000/svg">
<path d="M63.936 550.808C54.048 552.824 45.168 553.832 37.296 553.832C29.424 553.832 23.04 552.776 18.144 550.664C13.344 548.456 9.6 545.096 6.912 540.584C4.32 535.976 2.496 530.744 1.44 524.888C0.48 518.936 0 511.544 0 502.712C0 493.88 0.48 486.488 1.44 480.536C2.496 474.488 4.32 469.16 6.912 464.552C9.6 459.944 13.344 456.584 18.144 454.472C22.944 452.36 29.184 451.304 36.864 451.304C44.544 451.304 53.568 452.36 63.936 454.472L63.504 463.832C53.808 462.104 45.168 461.24 37.584 461.24C27.024 461.24 20.016 464.408 16.56 470.744C13.2 476.984 11.52 487.688 11.52 502.856C11.52 510.44 11.808 516.536 12.384 521.144C13.056 525.752 14.304 529.928 16.128 533.672C17.952 537.32 20.592 539.96 24.048 541.592C27.6 543.128 32.736 543.896 39.456 543.896C46.272 543.896 54.288 543.032 63.504 541.304L63.936 550.808ZM91.0001 552.392H80.2001V449H91.0001V484.424C98.68 480.776 106.072 478.952 113.176 478.952C122.776 478.952 129.208 481.544 132.472 486.728C135.832 491.912 137.512 501.128 137.512 514.376V552.392H126.712V514.664C126.712 504.68 125.704 497.864 123.688 494.216C121.768 490.472 117.64 488.6 111.304 488.6C105.256 488.6 99.4 489.704 93.736 491.912L91.0001 492.92V552.392ZM208.376 502.136V539C208.664 542.552 211.448 544.664 216.728 545.336L216.296 553.832C208.712 553.832 203 551.912 199.16 548.072C190.52 551.912 181.88 553.832 173.24 553.832C166.616 553.832 161.576 551.96 158.12 548.216C154.664 544.472 152.936 539.096 152.936 532.088C152.936 525.08 154.712 519.944 158.264 516.68C161.816 513.32 167.384 511.256 174.968 510.488L197.576 508.328V502.136C197.576 497.24 196.52 493.736 194.408 491.624C192.296 489.512 189.416 488.456 185.768 488.456C178.088 488.456 170.12 488.936 161.864 489.896L157.4 490.328L156.968 482.12C167.528 480.008 176.888 478.952 185.048 478.952C193.208 478.952 199.112 480.824 202.76 484.568C206.504 488.312 208.376 494.168 208.376 502.136ZM164.024 531.512C164.024 540.344 167.672 544.76 174.968 544.76C181.496 544.76 187.928 543.656 194.264 541.448L197.576 540.296V516.536L176.264 518.552C171.944 518.936 168.824 520.184 166.904 522.296C164.984 524.408 164.024 527.48 164.024 531.512ZM240.484 552.392H229.685V480.392H240.341V485.432C248.117 481.112 255.557 478.952 262.661 478.952C272.261 478.952 278.693 481.544 281.957 486.728C285.317 491.912 286.997 501.128 286.997 514.376V552.392H276.341V514.664C276.341 504.68 275.333 497.864 273.317 494.216C271.397 490.472 267.221 488.6 260.789 488.6C257.717 488.6 254.453 489.08 250.997 490.04C247.637 490.904 245.045 491.768 243.221 492.632L240.484 493.928V552.392ZM317.828 552.392H307.028V480.392H317.684V485.432C325.46 481.112 332.9 478.952 340.004 478.952C349.604 478.952 356.036 481.544 359.3 486.728C362.66 491.912 364.34 501.128 364.34 514.376V552.392H353.684V514.664C353.684 504.68 352.676 497.864 350.66 494.216C348.74 490.472 344.564 488.6 338.132 488.6C335.06 488.6 331.796 489.08 328.34 490.04C324.98 490.904 322.388 491.768 320.564 492.632L317.828 493.928V552.392ZM433.332 543.464L437.508 543.032L437.796 551.528C426.852 553.064 417.492 553.832 409.716 553.832C399.348 553.832 392.004 550.856 387.684 544.904C383.364 538.856 381.204 529.496 381.204 516.824C381.204 491.576 391.236 478.952 411.3 478.952C420.996 478.952 428.244 481.688 433.044 487.16C437.844 492.536 440.244 501.032 440.244 512.648L439.668 520.856H392.148C392.148 528.824 393.588 534.728 396.468 538.568C399.348 542.408 404.34 544.328 411.444 544.328C418.644 544.328 425.94 544.04 433.332 543.464ZM429.444 512.216C429.444 503.384 428.004 497.144 425.124 493.496C422.34 489.848 417.732 488.024 411.3 488.024C404.964 488.024 400.164 489.944 396.9 493.784C393.732 497.624 392.1 503.768 392.004 512.216H429.444ZM457.939 552.392V449H468.739V552.392H457.939ZM523.916 452.744H560.06C569.948 452.744 577.34 454.808 582.236 458.936C587.228 462.968 589.724 469.352 589.724 478.088C589.724 484.328 588.62 489.224 586.412 492.776C584.3 496.232 581.132 498.968 576.908 500.984C587.468 504.632 592.748 512.456 592.748 524.456C592.748 534.44 590.108 541.592 584.828 545.912C579.548 550.232 571.916 552.392 561.932 552.392H523.916V452.744ZM560.78 506.6H535.004V542.6H561.5C568.028 542.6 572.972 541.256 576.332 538.568C579.788 535.784 581.516 530.936 581.516 524.024C581.516 520.376 580.796 517.304 579.356 514.808C578.012 512.312 576.188 510.536 573.884 509.48C569.66 507.56 565.292 506.6 560.78 506.6ZM559.628 462.536H535.004V496.952H560.636C566.78 496.952 571.244 495.512 574.028 492.632C576.908 489.656 578.348 485.24 578.348 479.384C578.348 473.432 576.812 469.16 573.74 466.568C570.764 463.88 566.06 462.536 559.628 462.536ZM611.642 552.392V449H622.442V552.392H611.642ZM640.938 516.248C640.938 503.096 643.29 493.592 647.994 487.736C652.698 481.88 660.618 478.952 671.754 478.952C682.986 478.952 690.906 481.88 695.514 487.736C700.218 493.592 702.57 503.096 702.57 516.248C702.57 529.4 700.362 538.952 695.946 544.904C691.53 550.856 683.466 553.832 671.754 553.832C660.042 553.832 651.978 550.856 647.562 544.904C643.146 538.952 640.938 529.4 640.938 516.248ZM652.026 516.104C652.026 526.568 653.274 533.912 655.77 538.136C658.362 542.36 663.69 544.472 671.754 544.472C679.914 544.472 685.242 542.408 687.738 538.28C690.234 534.056 691.482 526.664 691.482 516.104C691.482 505.544 690.09 498.296 687.306 494.36C684.522 490.328 679.338 488.312 671.754 488.312C664.266 488.312 659.082 490.328 656.202 494.36C653.418 498.296 652.026 505.544 652.026 516.104ZM747.113 478.952C750.281 478.952 755.657 479.528 763.241 480.68L766.697 481.112L766.265 489.896C758.585 489.032 752.921 488.6 749.273 488.6C741.113 488.6 735.545 490.568 732.569 494.504C729.689 498.344 728.249 505.544 728.249 516.104C728.249 526.568 729.593 533.864 732.281 537.992C735.065 542.12 740.777 544.184 749.417 544.184L766.409 542.888L766.841 551.816C757.913 553.16 751.241 553.832 746.824 553.832C735.593 553.832 727.817 550.952 723.497 545.192C719.273 539.432 717.161 529.736 717.161 516.104C717.161 502.376 719.465 492.776 724.073 487.304C728.681 481.736 736.361 478.952 747.113 478.952ZM793.703 552.392H782.903V449H793.703V510.056L804.935 509.48L825.527 480.392H837.767L814.295 513.512L838.775 552.392H826.535L805.079 518.984L793.703 519.416V552.392ZM898.941 543.464L903.117 543.032L903.405 551.528C892.461 553.064 883.101 553.832 875.325 553.832C864.957 553.832 857.613 550.856 853.293 544.904C848.973 538.856 846.813 529.496 846.813 516.824C846.813 491.576 856.845 478.952 876.909 478.952C886.605 478.952 893.853 481.688 898.653 487.16C903.453 492.536 905.853 501.032 905.853 512.648L905.277 520.856H857.757C857.757 528.824 859.197 534.728 862.077 538.568C864.957 542.408 869.949 544.328 877.053 544.328C884.253 544.328 891.549 544.04 898.941 543.464ZM895.053 512.216C895.053 503.384 893.613 497.144 890.733 493.496C887.949 489.848 883.341 488.024 876.909 488.024C870.573 488.024 865.773 489.944 862.509 493.784C859.341 497.624 857.709 503.768 857.613 512.216H895.053ZM922.685 552.392V480.392H933.341V490.184C941.693 484.424 950.477 480.632 959.693 478.808V489.752C955.661 490.52 951.437 491.72 947.021 493.352C942.701 494.984 939.389 496.424 937.085 497.672L933.484 499.544V552.392H922.685Z" fill="#336E7B"/>
<path d="M234.107 143C226.868 143 221 149.848 221 158.295V361.5H738V158.295C738 149.848 732.132 143 724.893 143H234.107Z" fill="#336E7B"/>
<path d="M738 371.5H221V404.706C221 413.152 226.868 420 234.107 420H724.893C732.132 420 738 413.152 738 404.706V371.5Z" fill="#336E7B"/>
<path d="M480 333.5C516.632 333.5 546.5 304.939 546.5 269.5C546.5 234.061 516.632 205.5 480 205.5C443.368 205.5 413.5 234.061 413.5 269.5C413.5 304.939 443.368 333.5 480 333.5ZM531.318 270.199C531.318 296.901 508.763 318.716 480.727 318.716C469.338 318.716 458.841 315.109 450.396 309.032L521.159 241.033C527.544 249.159 531.318 259.259 531.318 270.199ZM480.727 221.682C491.742 221.682 501.923 225.055 510.219 230.774L439.677 298.561C433.668 290.577 430.136 280.782 430.136 270.199C430.136 243.497 452.692 221.682 480.727 221.682Z" fill="#336E7B" stroke="white" stroke-width="5"/>
<path d="M263 394L236 409.588V378.412L263 394Z" fill="white"/>
<path d="M723 382H713V378H727V392H723V382Z" fill="white"/>
<path d="M683 392V382H693V378H679V392H683Z" fill="white"/>
<path d="M679 398V412H693V408H683V398H679Z" fill="white"/>
<path d="M723 398H727V412H713V408H723V398Z" fill="white"/>
<path d="M168.24 4.352H204.384C214.272 4.352 221.664 6.41599 226.56 10.544C231.552 14.576 234.048 20.96 234.048 29.696C234.048 35.936 232.944 40.832 230.736 44.384C228.624 47.84 225.456 50.576 221.232 52.592C231.792 56.24 237.072 64.064 237.072 76.064C237.072 86.048 234.432 93.2 229.152 97.52C223.872 101.84 216.24 104 206.256 104H168.24V4.352ZM205.104 58.208H179.328V94.208H205.824C212.352 94.208 217.296 92.864 220.656 90.176C224.112 87.392 225.84 82.544 225.84 75.632C225.84 71.984 225.12 68.912 223.68 66.416C222.336 63.92 220.512 62.144 218.208 61.088C213.984 59.168 209.616 58.208 205.104 58.208ZM203.952 14.144H179.328V48.56H204.96C211.104 48.56 215.568 47.12 218.352 44.24C221.232 41.264 222.672 36.848 222.672 30.992C222.672 25.04 221.136 20.768 218.064 18.176C215.088 15.488 210.384 14.144 203.952 14.144ZM255.966 104V0.607992H266.766V104H255.966ZM285.263 67.856C285.263 54.704 287.615 45.2 292.319 39.344C297.023 33.488 304.943 30.56 316.078 30.56C327.311 30.56 335.231 33.488 339.839 39.344C344.543 45.2 346.895 54.704 346.895 67.856C346.895 81.008 344.687 90.56 340.271 96.512C335.855 102.464 327.791 105.44 316.078 105.44C304.367 105.44 296.303 102.464 291.887 96.512C287.471 90.56 285.263 81.008 285.263 67.856ZM296.351 67.712C296.351 78.176 297.599 85.52 300.095 89.744C302.687 93.968 308.015 96.08 316.078 96.08C324.239 96.08 329.567 94.016 332.063 89.888C334.559 85.664 335.807 78.272 335.807 67.712C335.807 57.152 334.415 49.904 331.631 45.968C328.847 41.936 323.663 39.92 316.078 39.92C308.591 39.92 303.407 41.936 300.527 45.968C297.743 49.904 296.351 57.152 296.351 67.712ZM391.437 30.56C394.605 30.56 399.981 31.136 407.565 32.288L411.021 32.72L410.589 41.504C402.909 40.64 397.245 40.208 393.597 40.208C385.437 40.208 379.869 42.176 376.893 46.112C374.013 49.952 372.573 57.152 372.573 67.712C372.573 78.176 373.917 85.472 376.605 89.6C379.389 93.728 385.101 95.792 393.741 95.792L410.733 94.496L411.165 103.424C402.237 104.768 395.565 105.44 391.149 105.44C379.917 105.44 372.141 102.56 367.821 96.8C363.597 91.04 361.485 81.344 361.485 67.712C361.485 53.984 363.789 44.384 368.397 38.912C373.005 33.344 380.685 30.56 391.437 30.56ZM438.027 104H427.227V0.607992H438.027V61.664L449.259 61.088L469.851 32H482.091L458.619 65.12L483.099 104H470.859L449.403 70.592L438.027 71.024V104ZM543.266 95.072L547.442 94.64L547.73 103.136C536.786 104.672 527.426 105.44 519.65 105.44C509.282 105.44 501.938 102.464 497.618 96.512C493.298 90.464 491.138 81.104 491.138 68.432C491.138 43.184 501.17 30.56 521.234 30.56C530.93 30.56 538.178 33.296 542.978 38.768C547.778 44.144 550.178 52.64 550.178 64.256L549.602 72.464H502.082C502.082 80.432 503.522 86.336 506.402 90.176C509.282 94.016 514.274 95.936 521.378 95.936C528.578 95.936 535.874 95.648 543.266 95.072ZM539.378 63.824C539.378 54.992 537.938 48.752 535.058 45.104C532.274 41.456 527.666 39.632 521.234 39.632C514.898 39.632 510.098 41.552 506.834 45.392C503.666 49.232 502.034 55.376 501.938 63.824H539.378ZM622.305 0.607992V104H611.649V99.104C604.257 103.328 596.961 105.44 589.761 105.44C585.921 105.44 582.561 104.96 579.681 104C576.801 103.04 574.113 101.312 571.617 98.816C566.433 93.632 563.841 84.08 563.841 70.16C563.841 56.144 566.145 46.064 570.753 39.92C575.457 33.68 583.185 30.56 593.937 30.56C599.505 30.56 605.409 31.184 611.649 32.432V0.607992H622.305ZM579.969 91.04C581.505 92.864 583.137 94.112 584.865 94.784C586.593 95.456 588.801 95.792 591.489 95.792C594.273 95.792 597.345 95.36 600.705 94.496C604.161 93.536 606.849 92.624 608.769 91.76L611.649 90.464V41.648C605.505 40.496 599.793 39.92 594.513 39.92C587.217 39.92 582.129 42.272 579.249 46.976C576.369 51.584 574.929 58.784 574.929 68.576C574.929 79.712 576.609 87.2 579.969 91.04ZM706.692 30.56C716.388 30.56 723.156 33.344 726.996 38.912C730.932 44.384 732.9 54.032 732.9 67.856C732.9 81.68 730.452 91.424 725.556 97.088C720.756 102.656 711.876 105.44 698.916 105.44C694.884 105.44 688.212 105.056 678.9 104.288L674.868 103.856V0.607992H685.524V35.6C692.82 32.24 699.876 30.56 706.692 30.56ZM698.772 95.792C708.18 95.792 714.372 93.68 717.348 89.456C720.42 85.136 721.956 77.888 721.956 67.712C721.956 57.536 720.756 50.432 718.356 46.4C715.956 42.272 711.684 40.208 705.54 40.208C699.972 40.208 694.26 41.264 688.404 43.376L685.524 44.384V95.072C691.764 95.552 696.18 95.792 698.772 95.792ZM742.631 32H753.431L771.431 94.64H776.183L794.327 32H805.127L775.175 135.968H764.375L773.735 104H763.079L742.631 32Z" fill="#336E7B"/>
</svg>
