<svg width="200" height="200" viewBox="0 0 200 200" fill="none" xmlns="http://www.w3.org/2000/svg">
<path fill-rule="evenodd" clip-rule="evenodd" d="M67.5 156.2V156.292L165 100L138.817 84.883L67.5 156.2ZM131.644 80.7419L117.38 72.5067L67.5 122.387V144.886L131.644 80.7419ZM67.5 111.073L110.208 68.3656L67.5 43.7083V111.073Z" fill="#FF3333"/>
<path fill-rule="evenodd" clip-rule="evenodd" d="M200 100C200 155.228 155.228 200 100 200C44.7715 200 0 155.228 0 100C0 44.7715 44.7715 0 100 0C155.228 0 200 44.7715 200 100ZM184.091 101.136C184.091 146.951 146.951 184.091 101.136 184.091C80.8037 184.091 62.1795 176.776 47.7522 164.634L164.634 47.7522C176.776 62.1795 184.091 80.8037 184.091 101.136ZM153.275 36.6116C139.029 25.0855 120.889 18.1818 101.136 18.1818C55.3218 18.1818 18.1818 55.3218 18.1818 101.136C18.1818 120.889 25.0855 139.029 36.6116 153.275L153.275 36.6116Z" fill="#FF3333"/>
</svg>
