<svg width="200" height="200" viewBox="0 0 200 200" fill="none" xmlns="http://www.w3.org/2000/svg">
<rect width="200" height="200" rx="10" fill="#336E7B"/>
<path d="M82.25 61.6221L134 91.5L82.25 121.378V61.6221Z" fill="white" stroke="white" stroke-width="5"/>
<path d="M100 158.5C136.727 158.5 166.5 128.727 166.5 92C166.5 55.2731 136.727 25.5 100 25.5C63.2731 25.5 33.5 55.2731 33.5 92C33.5 128.727 63.2731 158.5 100 158.5ZM151.318 92.7273C151.318 120.668 128.668 143.318 100.727 143.318C89.3065 143.318 78.7745 139.537 70.3076 133.155L141.155 62.3076C147.537 70.7745 151.318 81.3065 151.318 92.7273ZM100.727 42.1364C111.775 42.1364 121.991 45.6749 130.31 51.6821L59.6821 122.31C53.6749 113.991 50.1364 103.775 50.1364 92.7273C50.1364 64.7867 72.7867 42.1364 100.727 42.1364Z" fill="white" stroke="#336E7B" stroke-width="5"/>
</svg>
