<svg width="200" height="200" viewBox="0 0 200 200" fill="none" xmlns="http://www.w3.org/2000/svg">
<rect width="200" height="200" rx="10" fill="#336E7B"/>
<path d="M82.25 69.6221L134 99.5L82.25 129.378V69.6221Z" fill="white" stroke="white" stroke-width="5"/>
<path d="M100 166.5C136.727 166.5 166.5 136.727 166.5 100C166.5 63.2731 136.727 33.5 100 33.5C63.2731 33.5 33.5 63.2731 33.5 100C33.5 136.727 63.2731 166.5 100 166.5ZM151.318 100.727C151.318 128.668 128.668 151.318 100.727 151.318C89.3065 151.318 78.7745 147.537 70.3076 141.155L141.155 70.3076C147.537 78.7745 151.318 89.3065 151.318 100.727ZM100.727 50.1364C111.775 50.1364 121.991 53.6749 130.31 59.6821L59.6821 130.31C53.6749 121.991 50.1364 111.775 50.1364 100.727C50.1364 72.7867 72.7867 50.1364 100.727 50.1364Z" fill="white" stroke="#336E7B" stroke-width="5"/>
</svg>
