<svg width="200" height="200" viewBox="0 0 200 200" fill="none" xmlns="http://www.w3.org/2000/svg">
<rect width="200" height="200" rx="10" fill="#336E7B"/>
<path d="M70 48.0385L160 100L70 151.962L70 48.0385Z" fill="white" stroke="white" stroke-width="5"/>
<path d="M100 192.5C151.086 192.5 192.5 151.086 192.5 100C192.5 48.9137 151.086 7.5 100 7.5C48.9137 7.5 7.5 48.9137 7.5 100C7.5 151.086 48.9137 192.5 100 192.5ZM173.182 101.023C173.182 140.875 140.875 173.182 101.023 173.182C84.3147 173.182 68.9381 167.506 56.7075 157.975L157.975 56.7075C167.506 68.938 173.182 84.3147 173.182 101.023ZM101.023 28.8636C117.207 28.8636 132.142 34.189 144.178 43.1848L43.1848 144.178C34.189 132.142 28.8636 117.207 28.8636 101.023C28.8636 61.1704 61.1704 28.8636 101.023 28.8636Z" fill="white" stroke="#336E7B" stroke-width="5"/>
</svg>
