<svg width="204" height="204" viewBox="0 0 204 204" fill="none" xmlns="http://www.w3.org/2000/svg">
<mask id="path-1-outside-1" maskUnits="userSpaceOnUse" x="68.75" y="43.8734" width="100" height="113" fill="black">
<rect fill="white" x="68.75" y="43.8734" width="100" height="113"/>
<path fill-rule="evenodd" clip-rule="evenodd" d="M72.6971 155.002L164.5 102L139.901 87.798L72.6971 155.002ZM132.729 83.6569L118.465 75.4218L70.75 123.137V145.636L132.729 83.6569ZM70.75 111.823L111.293 71.2807L70.75 47.8734V111.823Z"/>
</mask>
<path fill-rule="evenodd" clip-rule="evenodd" d="M72.6971 155.002L164.5 102L139.901 87.798L72.6971 155.002ZM132.729 83.6569L118.465 75.4218L70.75 123.137V145.636L132.729 83.6569ZM70.75 111.823L111.293 71.2807L70.75 47.8734V111.823Z" fill="#FF3333"/>
<path d="M164.5 102L165.5 103.732L168.5 102L165.5 100.268L164.5 102ZM72.6971 155.002L71.2829 153.588L73.6971 156.734L72.6971 155.002ZM139.901 87.798L140.901 86.066L139.572 85.2987L138.487 86.3838L139.901 87.798ZM118.465 75.4218L119.465 73.6897L118.136 72.9224L117.051 74.0075L118.465 75.4218ZM132.729 83.6569L134.143 85.0711L135.986 83.2281L133.729 81.9249L132.729 83.6569ZM70.75 123.137L69.3358 121.723L68.75 122.308V123.137H70.75ZM70.75 145.636H68.75V150.464L72.1642 147.05L70.75 145.636ZM70.75 111.823H68.75V116.652L72.1642 113.237L70.75 111.823ZM111.293 71.2807L112.707 72.6949L114.55 70.8518L112.293 69.5486L111.293 71.2807ZM70.75 47.8734L71.75 46.1414L68.75 44.4093V47.8734H70.75ZM163.5 100.268L71.6971 153.27L73.6971 156.734L165.5 103.732L163.5 100.268ZM138.901 89.5301L163.5 103.732L165.5 100.268L140.901 86.066L138.901 89.5301ZM138.487 86.3838L71.2829 153.588L74.1113 156.417L141.316 89.2122L138.487 86.3838ZM117.465 77.1538L131.729 85.389L133.729 81.9249L119.465 73.6897L117.465 77.1538ZM72.1642 124.551L119.879 76.836L117.051 74.0075L69.3358 121.723L72.1642 124.551ZM72.75 145.636V123.137H68.75V145.636H72.75ZM72.1642 147.05L134.143 85.0711L131.315 82.2427L69.3358 144.222L72.1642 147.05ZM72.1642 113.237L112.707 72.6949L109.878 69.8664L69.3358 110.409L72.1642 113.237ZM69.75 49.6055L110.293 73.0127L112.293 69.5486L71.75 46.1414L69.75 49.6055ZM72.75 111.823V47.8734H68.75V111.823H72.75Z" fill="white" mask="url(#path-1-outside-1)"/>
<path d="M102 203C157.781 203 203 157.781 203 102C203 46.2193 157.781 1 102 1C46.2193 1 1 46.2193 1 102C1 157.781 46.2193 203 102 203ZM185.091 103.136C185.091 148.399 148.399 185.091 103.136 185.091C83.4398 185.091 65.3683 178.144 51.235 166.565L166.565 51.2349C178.144 65.3683 185.091 83.4398 185.091 103.136ZM103.136 21.1818C122.252 21.1818 139.837 27.7253 153.777 38.6955L38.6955 153.777C27.7253 139.837 21.1818 122.252 21.1818 103.136C21.1818 57.8741 57.8741 21.1818 103.136 21.1818Z" fill="#FF3333" stroke="white" stroke-width="2"/>
</svg>
