<svg width="128" height="128" viewBox="0 0 128 128" fill="none" xmlns="http://www.w3.org/2000/svg">
<path fill-rule="evenodd" clip-rule="evenodd" d="M52.267 88.7493L96 63.5L84.2818 56.7345L52.267 88.7493ZM79.7989 54.1463L72.9523 50.1934L47.25 75.8957V86.6952L79.7989 54.1463ZM47.25 68.8247L68.4694 47.6052L47.25 35.3542V68.8247Z" fill="#FF3333"/>
<path fill-rule="evenodd" clip-rule="evenodd" d="M112 64C112 90.5097 90.5097 112 64 112C37.4903 112 16 90.5097 16 64C16 37.4903 37.4903 16 64 16C90.5097 16 112 37.4903 112 64ZM104.364 64.5455C104.364 86.5364 86.5364 104.364 64.5455 104.364C54.7858 104.364 45.8462 100.852 38.9211 95.0241L95.0241 38.921C100.852 45.8462 104.364 54.7858 104.364 64.5455ZM89.5721 33.5736C82.7339 28.041 74.0267 24.7273 64.5455 24.7273C42.5545 24.7273 24.7273 42.5545 24.7273 64.5455C24.7273 74.0267 28.041 82.7339 33.5736 89.5722L89.5721 33.5736Z" fill="#FF3333"/>
</svg>
