<svg width="210" height="214" viewBox="0 0 210 214" fill="none" xmlns="http://www.w3.org/2000/svg">
<g filter="url(#filter0_d)">
<g filter="url(#filter1_f)">
<mask id="path-1-outside-1" maskUnits="userSpaceOnUse" x="4" y="4" width="202" height="202" fill="black">
<rect fill="white" x="4" y="4" width="202" height="202"/>
<path fill-rule="evenodd" clip-rule="evenodd" d="M105 205C160.228 205 205 160.228 205 105C205 49.7715 160.228 5 105 5C49.7715 5 5 49.7715 5 105C5 160.228 49.7715 205 105 205ZM106.136 189.091C151.951 189.091 189.091 151.951 189.091 106.136C189.091 85.8037 181.776 67.1795 169.634 52.7522L135.729 86.6569L73.75 148.636L52.7522 169.634C67.1795 181.776 85.8037 189.091 106.136 189.091ZM73.75 126.137L121.465 78.4218L158.275 41.6116C144.029 30.0855 125.889 23.1818 106.136 23.1818C60.3218 23.1818 23.1818 60.3218 23.1818 106.136C23.1818 125.889 30.0855 144.029 41.6116 158.275L73.75 126.137ZM167.5 105L75.6971 158.002L142.901 90.798L167.5 105ZM114.293 74.2807L73.75 114.823V50.8734L114.293 74.2807Z"/>
</mask>
<path d="M169.634 52.7522L170.399 52.1083L169.697 51.2745L168.926 52.0451L169.634 52.7522ZM135.729 86.6569L135.022 85.9498L135.022 85.9498L135.729 86.6569ZM73.75 148.636L74.4571 149.343L74.4571 149.343L73.75 148.636ZM52.7522 169.634L52.0451 168.926L51.2746 169.697L52.1083 170.399L52.7522 169.634ZM73.75 126.137L73.0429 125.43L73.0429 125.43L73.75 126.137ZM121.465 78.4218L120.758 77.7147L120.758 77.7147L121.465 78.4218ZM158.275 41.6116L158.982 42.3187L159.768 41.533L158.904 40.8342L158.275 41.6116ZM41.6116 158.275L40.8342 158.904L41.533 159.768L42.3187 158.982L41.6116 158.275ZM75.6971 158.002L74.99 157.295L76.1971 158.868L75.6971 158.002ZM167.5 105L168 105.866L169.5 105L168 104.134L167.5 105ZM142.901 90.798L143.401 89.932L142.737 89.5483L142.194 90.0909L142.901 90.798ZM73.75 114.823H72.75V117.237L74.4571 115.53L73.75 114.823ZM114.293 74.2807L115 74.9878L115.921 74.0662L114.793 73.4146L114.293 74.2807ZM73.75 50.8734L74.25 50.0074L72.75 49.1414V50.8734H73.75ZM204 105C204 159.676 159.676 204 105 204V206C160.781 206 206 160.781 206 105H204ZM105 6C159.676 6 204 50.3238 204 105H206C206 49.2193 160.781 4 105 4V6ZM6 105C6 50.3238 50.3238 6 105 6V4C49.2193 4 4 49.2193 4 105H6ZM105 204C50.3238 204 6 159.676 6 105H4C4 160.781 49.2193 206 105 206V204ZM188.091 106.136C188.091 151.399 151.399 188.091 106.136 188.091V190.091C152.503 190.091 190.091 152.503 190.091 106.136H188.091ZM168.868 53.3961C180.865 67.6499 188.091 86.048 188.091 106.136H190.091C190.091 85.5594 182.687 66.7091 170.399 52.1083L168.868 53.3961ZM136.436 87.364L170.341 53.4593L168.926 52.0451L135.022 85.9498L136.436 87.364ZM74.4571 149.343L136.436 87.364L135.022 85.9498L73.0429 147.929L74.4571 149.343ZM53.4593 170.341L74.4571 149.343L73.0429 147.929L52.0451 168.926L53.4593 170.341ZM106.136 188.091C86.048 188.091 67.6499 180.865 53.3961 168.868L52.1083 170.399C66.7091 182.687 85.5594 190.091 106.136 190.091V188.091ZM74.4571 126.844L122.172 79.1289L120.758 77.7147L73.0429 125.43L74.4571 126.844ZM122.172 79.1289L158.982 42.3187L157.568 40.9045L120.758 77.7147L122.172 79.1289ZM158.904 40.8342C144.486 29.1693 126.126 22.1818 106.136 22.1818V24.1818C125.652 24.1818 143.571 31.0017 157.646 42.389L158.904 40.8342ZM106.136 22.1818C59.7696 22.1818 22.1818 59.7696 22.1818 106.136H24.1818C24.1818 60.8741 60.8741 24.1818 106.136 24.1818V22.1818ZM22.1818 106.136C22.1818 126.126 29.1693 144.486 40.8342 158.904L42.389 157.646C31.0017 143.571 24.1818 125.652 24.1818 106.136H22.1818ZM42.3187 158.982L74.4571 126.844L73.0429 125.43L40.9045 157.568L42.3187 158.982ZM76.1971 158.868L168 105.866L167 104.134L75.1971 157.136L76.1971 158.868ZM142.194 90.0909L74.99 157.295L76.4042 158.71L143.609 91.5051L142.194 90.0909ZM168 104.134L143.401 89.932L142.401 91.6641L167 105.866L168 104.134ZM74.4571 115.53L115 74.9878L113.585 73.5735L73.0429 114.116L74.4571 115.53ZM72.75 50.8734V114.823H74.75V50.8734H72.75ZM114.793 73.4146L74.25 50.0074L73.25 51.7394L113.793 75.1467L114.793 73.4146Z" fill="white" mask="url(#path-1-outside-1)"/>
</g>
<path fill-rule="evenodd" clip-rule="evenodd" d="M105 205C160.228 205 205 160.228 205 105C205 49.7715 160.228 5 105 5C49.7715 5 5 49.7715 5 105C5 160.228 49.7715 205 105 205ZM106.136 189.091C151.951 189.091 189.091 151.951 189.091 106.136C189.091 85.8037 181.776 67.1795 169.634 52.7522L135.729 86.6569L73.75 148.636L52.7522 169.634C67.1795 181.776 85.8037 189.091 106.136 189.091ZM73.75 126.137L121.465 78.4218L158.275 41.6116C144.029 30.0855 125.889 23.1818 106.136 23.1818C60.3218 23.1818 23.1818 60.3218 23.1818 106.136C23.1818 125.889 30.0855 144.029 41.6116 158.275L73.75 126.137ZM167.5 105L75.6971 158.002L142.901 90.798L167.5 105ZM114.293 74.2807L73.75 114.823V50.8734L114.293 74.2807Z" fill="#FF3333"/>
</g>
<defs>
<filter id="filter0_d" x="0" y="4" width="210" height="210" filterUnits="userSpaceOnUse" color-interpolation-filters="sRGB">
<feFlood flood-opacity="0" result="BackgroundImageFix"/>
<feColorMatrix in="SourceAlpha" type="matrix" values="0 0 0 0 0 0 0 0 0 0 0 0 0 0 0 0 0 0 127 0"/>
<feOffset dy="4"/>
<feGaussianBlur stdDeviation="2"/>
<feColorMatrix type="matrix" values="0 0 0 0 0 0 0 0 0 0 0 0 0 0 0 0 0 0 0.25 0"/>
<feBlend mode="normal" in2="BackgroundImageFix" result="effect1_dropShadow"/>
<feBlend mode="normal" in="SourceGraphic" in2="effect1_dropShadow" result="shape"/>
</filter>
<filter id="filter1_f" x="0" y="0" width="210" height="210" filterUnits="userSpaceOnUse" color-interpolation-filters="sRGB">
<feFlood flood-opacity="0" result="BackgroundImageFix"/>
<feBlend mode="normal" in="SourceGraphic" in2="BackgroundImageFix" result="shape"/>
<feGaussianBlur stdDeviation="2" result="effect1_foregroundBlur"/>
</filter>
</defs>
</svg>
