<svg width="10" height="10" viewBox="0 0 218 218" fill="none" xmlns="http://www.w3.org/2000/svg">
									<path id="questionmarkSVGPath" fill-rule="evenodd" clip-rule="evenodd" d="M109 218C169.199 218 218 169.199 218 109C218 48.801 169.199 0 109 0C48.801 0 0 48.801 0 109C0 169.199 48.801 218 109 218ZM136.548 53.4C130.148 48.2 120.548 45.6 107.748 45.6C94.9477 45.6 82.8143 47.9333 71.3477 52.6L72.7477 72.8L76.9477 72C85.3477 70.4 93.5477 69.6 101.548 69.6C112.881 69.6 118.548 73.5333 118.548 81.4C118.548 85.1333 117.548 88.3333 115.548 91C113.681 93.5333 108.481 98.2 99.9477 105C91.5477 111.8 87.3477 117.6 87.3477 122.4C87.3477 130 89.4143 136.067 93.5477 140.6H114.948V134.4C114.948 131.2 115.814 128.267 117.548 125.6C119.281 122.933 123.481 119.133 130.148 114.2C136.814 109.133 141.148 104.267 143.148 99.6C145.281 94.8 146.348 87.2 146.348 76.8C146.348 66.4 143.081 58.6 136.548 53.4ZM89.1477 151.8V184H117.948V151.8H89.1477Z" fill="#A6A6A6"/>
								</svg>